HIERARCHY
ROOT SimulationBone
{
	OFFSET 0.000000 0.000000 0.000000
	CHANNELS 6 Xposition Yposition Zposition Zrotation Yrotation Xrotation 
	JOINT Hips
	{
		OFFSET 0.000000 0.000000 0.000000
		CHANNELS 6 Xposition Yposition Zposition Zrotation Yrotation Xrotation 
		JOINT RightUpLeg
		{
			OFFSET 0.103458 1.857831 10.548500
			CHANNELS 3 Zrotation Yrotation Xrotation
			JOINT RightLeg
			{
				OFFSET 43.500000 -0.000027 -0.000013
				CHANNELS 3 Zrotation Yrotation Xrotation
				JOINT RightFoot
				{
					OFFSET 42.372196 0.000031 0.000011
					CHANNELS 3 Zrotation Yrotation Xrotation
					JOINT RightToe
					{
						OFFSET 17.299994 -0.000003 -0.000004
						CHANNELS 3 Zrotation Yrotation Xrotation
						End Site
						{
							OFFSET 0.000000 0.000000 0.000000
						}
					}
				}
			}
		}
		JOINT LeftUpLeg
		{
			OFFSET 0.103455 1.857826 -10.548502
			CHANNELS 3 Zrotation Yrotation Xrotation
			JOINT LeftLeg
			{
				OFFSET 43.500038 -0.000023 0.000010
				CHANNELS 3 Zrotation Yrotation Xrotation
				JOINT LeftFoot
				{
					OFFSET 42.372261 0.000004 0.000006
					CHANNELS 3 Zrotation Yrotation Xrotation
					JOINT LeftToe
					{
						OFFSET 17.299988 -0.000008 0.000010
						CHANNELS 3 Zrotation Yrotation Xrotation
						End Site
						{
							OFFSET 0.000000 0.000000 0.000000
						}
					}
				}
			}
		}
		JOINT Spine
		{
			OFFSET 6.901968 -2.603722 -0.000004
			CHANNELS 3 Zrotation Yrotation Xrotation
			JOINT Spine1
			{
				OFFSET 12.588099 -0.000002 0.000005
				CHANNELS 3 Zrotation Yrotation Xrotation
				JOINT Spine2
				{
					OFFSET 12.343202 -0.000017 -0.000005
					CHANNELS 3 Zrotation Yrotation Xrotation
					JOINT Neck
					{
						OFFSET 25.832903 0.000008 0.000008
						CHANNELS 3 Zrotation Yrotation Xrotation
						JOINT Head
						{
							OFFSET 11.766607 0.000004 -0.000001
							CHANNELS 3 Zrotation Yrotation Xrotation
							End Site
							{
								OFFSET 0.000000 0.000000 0.000000
							}
						}
					}
					JOINT RightShoulder
					{
						OFFSET 19.745907 -1.480366 6.000107
						CHANNELS 3 Zrotation Yrotation Xrotation
						JOINT RightArm
						{
							OFFSET 11.284126 -0.000031 -0.000025
							CHANNELS 3 Zrotation Yrotation Xrotation
							JOINT RightForeArm
							{
								OFFSET 33.000050 0.000011 0.000029
								CHANNELS 3 Zrotation Yrotation Xrotation
								JOINT RightHand
								{
									OFFSET 25.200008 0.000009 0.000011
									CHANNELS 3 Zrotation Yrotation Xrotation
									End Site
									{
										OFFSET 0.000000 0.000000 0.000000
									}
								}
							}
						}
					}
					JOINT LeftShoulder
					{
						OFFSET 19.746094 -1.480364 -6.000070
						CHANNELS 3 Zrotation Yrotation Xrotation
						JOINT LeftArm
						{
							OFFSET 11.284145 -0.000017 -0.000020
							CHANNELS 3 Zrotation Yrotation Xrotation
							JOINT LeftForeArm
							{
								OFFSET 33.000088 0.000019 0.000022
								CHANNELS 3 Zrotation Yrotation Xrotation
								JOINT LeftHand
								{
									OFFSET 25.199780 0.000137 0.000414
									CHANNELS 3 Zrotation Yrotation Xrotation
									End Site
									{
										OFFSET 0.000000 0.000000 0.000000
									}
								}
							}
						}
					}
				}
			}
		}
	}
}
MOTION
Frames: 14
Frame Time: 0.016667
229.707953 0.000000 535.459436 0.000000 177.275587 0.000000 2.572715 88.637367 0.320910 100.458981 -0.839528 -179.959875 163.464117 -10.895295 -176.093123 -36.396069 -3.877900 -12.567343 78.182832 7.364404 -6.674220 21.454557 0.003111 0.000018 -177.115275 -3.439407 -167.405928 -29.269692 0.400929 3.469907 95.575915 -2.765189 -3.919233 21.454548 -0.003093 -0.000001 9.131662 -0.982605 -1.412642 8.275124 -1.861725 -2.892208 7.957283 -1.879285 -2.880929 6.260195 2.451043 -17.603979 -8.603073 12.714431 -20.938440 123.559511 -75.301998 56.084506 13.225033 54.030892 38.447919 -41.390375 -20.626304 1.890969 13.407537 3.293208 19.180715 -179.268301 74.047518 2.112206 -21.854584 -54.679221 -18.567431 -63.715460 19.457901 -2.548195 9.779003 9.072567 -20.504966 
229.572953 0.000000 535.071162 0.000000 175.271645 0.000000 2.540655 88.735404 0.223780 100.307330 -0.903429 -179.966102 162.804575 -9.646986 -176.226847 -37.375440 -3.462777 -12.447284 77.842408 7.216897 -6.845418 21.454557 0.003110 0.000018 -176.909423 -3.662090 -168.361492 -28.630915 0.540578 2.834656 95.238521 -2.416337 -4.451995 21.454547 -0.003094 -0.000000 9.092478 -0.870483 -1.291375 8.192010 -1.647412 -2.641301 7.874121 -1.663463 -2.631319 6.332024 1.948807 -17.701628 -8.836839 12.956966 -21.253512 125.052823 -75.104313 54.595778 13.325220 54.016989 38.728403 -42.854533 -20.532664 1.926810 12.960270 1.954071 19.503341 179.630276 74.286067 0.986951 -22.251021 -54.356858 -17.688152 -65.011023 19.037599 -2.570501 9.260256 9.320893 -20.886701 
229.400085 0.000000 534.670715 0.000000 173.323805 0.000000 2.482086 88.809647 0.138216 100.134334 -0.897442 -179.996344 162.178730 -8.424500 -176.307195 -38.007136 -3.095561 -12.338091 77.597799 7.104634 -6.924295 21.454557 0.003109 0.000018 -176.715258 -3.962493 -169.338531 -28.019050 0.655312 2.233972 94.915368 -2.089775 -4.958670 21.454550 -0.003093 0.000000 9.065492 -0.756017 -1.175029 8.133775 -1.427618 -2.400383 7.815867 -1.442220 -2.391730 6.203264 1.628865 -17.785652 -8.820407 13.030323 -21.418010 126.095779 -75.103076 53.542928 13.373278 54.160738 38.924701 -44.358693 -20.466051 1.966630 12.354345 0.490520 20.092726 178.672817 74.419306 0.008011 -22.707624 -53.993781 -16.801383 -66.202427 18.613059 -2.588815 8.637613 9.616664 -21.325131 
229.191032 0.000000 534.257203 0.000000 171.423234 0.000000 2.403310 88.862904 0.061395 99.946286 -0.848614 179.951868 161.575098 -7.211562 -176.349338 -38.325580 -2.748201 -12.204651 77.411614 7.010736 -6.876132 21.454555 0.003109 0.000017 -176.529726 -4.298274 -170.311487 -27.450363 0.754034 1.646823 94.617102 -1.771266 -5.444035 21.454552 -0.003091 0.000000 9.048789 -0.643160 -1.062061 8.096660 -1.210472 -2.166557 7.778743 -1.223667 -2.159218 5.943822 1.408814 -17.865390 -8.654356 13.018685 -21.502666 126.950903 -75.212999 52.669433 13.381487 54.370663 39.013439 -45.877738 -20.413669 2.009375 11.656352 -0.999636 20.816390 177.909802 74.490741 -0.772527 -23.209585 -53.607221 -15.940114 -67.277078 18.189191 -2.602715 8.055909 9.898495 -21.669532 
228.947482 0.000000 533.829735 0.000000 169.562015 0.000000 2.310049 88.897980 -0.010275 99.747614 -0.784114 179.880199 160.981616 -5.992294 -176.369172 -38.364564 -2.392326 -12.013120 77.246495 6.918203 -6.665875 21.454555 0.003109 0.000017 -176.351523 -4.627197 -171.254385 -26.941409 0.845753 1.052344 94.354070 -1.446476 -5.912895 21.454553 -0.003089 0.000000 9.040449 -0.535852 -0.950931 8.076867 -1.004057 -1.936946 7.758929 -1.015870 -1.930855 5.623934 1.206419 -17.951060 -8.440339 13.005299 -21.579096 127.850100 -75.344093 51.749385 13.360275 54.555130 38.969636 -47.386281 -20.362841 2.053349 10.941562 -2.422377 21.536403 177.379193 74.543922 -1.315088 -23.744334 -53.214975 -15.135289 -68.222442 17.770948 -2.612175 7.662630 10.109500 -21.766194 
228.671119 0.000000 533.387420 0.000000 167.733044 0.000000 2.207863 88.916938 -0.080535 99.541128 -0.726178 179.796538 160.386926 -4.757489 -176.339545 -38.162827 -2.029294 -11.737525 77.079953 6.804362 -6.306704 21.454555 0.003109 0.000017 -176.179444 -4.915693 -172.149117 -26.504918 0.941561 0.438111 94.134745 -1.106834 -6.370755 21.454550 -0.003090 0.000000 9.038120 -0.437469 -0.841554 8.069707 -0.815213 -1.711546 7.751728 -0.825669 -1.706598 5.319200 0.969473 -18.050709 -8.272371 13.050002 -21.702357 128.924548 -75.423911 50.656616 13.331251 54.647195 38.785837 -48.859015 -20.300220 2.096495 10.279372 -3.708412 22.119106 177.081412 74.614102 -1.618545 -24.298766 -52.841226 -14.416705 -69.011555 17.377855 -2.617395 7.554532 10.219294 -21.566575 
228.363631 0.000000 532.929368 0.000000 165.929953 0.000000 2.103543 88.918861 -0.151759 99.329173 -0.677020 179.735700 159.787973 -3.521606 -176.058808 -37.781675 -1.778203 -11.382183 76.949539 6.622662 -6.005494 21.454557 0.003109 0.000017 -176.006694 -5.164306 -173.010399 -26.137521 1.060670 -0.174952 93.961129 -0.767141 -6.825859 21.454548 -0.003092 0.000000 9.037759 -0.349146 -0.739639 8.067055 -0.645900 -1.501785 7.749039 -0.655094 -1.497864 5.125512 0.765718 -18.164724 -8.213287 13.118722 -21.862788 129.956599 -75.463976 49.609850 13.361698 54.679228 38.525312 -50.271636 -20.209375 2.137267 9.684762 -4.869813 22.469550 176.895998 74.704070 -1.806300 -24.851535 -52.534034 -13.815137 -69.559854 17.087690 -2.619399 7.620129 10.296821 -21.449997 
228.026702 0.000000 532.454686 0.000000 164.147036 0.000000 2.000795 88.906765 -0.223586 99.113562 -0.641059 179.725712 159.203742 -2.290655 -175.358135 -37.244569 -1.752050 -10.980751 76.865628 6.358460 -5.915744 21.454557 0.003108 0.000017 -175.823084 -5.378932 -173.870534 -25.820332 1.215836 -0.756463 93.825453 -0.448559 -7.283139 21.454548 -0.003094 -0.000001 9.035530 -0.273012 -0.650171 8.061174 -0.500082 -1.317744 7.743146 -0.508170 -1.314709 5.113869 0.669723 -18.287833 -8.294550 13.163696 -22.033077 130.717192 -75.498150 48.837750 13.497350 54.700204 38.258974 -51.590831 -20.081958 2.173659 9.178528 -5.907112 22.538985 176.692276 74.807249 -2.012381 -25.377544 -52.332714 -13.358142 -69.799204 16.968150 -2.620618 7.701678 10.433620 -21.714974 
227.662017 0.000000 531.962484 0.000000 162.379192 0.000000 1.890914 88.902367 -0.283506 98.891069 -0.652158 179.741882 158.702382 -1.029494 -174.373241 -36.394730 -1.922287 -10.646005 76.666530 6.154122 -5.783356 21.454557 0.003108 0.000017 -175.612414 -5.553608 -174.798912 -25.487339 1.386929 -1.272134 93.686815 -0.174365 -7.732076 21.454550 -0.003095 -0.000001 9.030165 -0.217457 -0.569405 8.049515 -0.394785 -1.152522 7.731478 -0.401877 -1.150126 5.236689 0.662055 -18.395538 -8.453817 13.178122 -22.178664 131.261698 -75.549039 48.282594 13.652424 54.724645 38.017932 -52.747245 -19.944952 2.203928 8.855538 -6.692137 22.419281 176.422693 74.914228 -2.285717 -25.834956 -52.216099 -13.069470 -69.783065 16.988373 -2.621679 7.668534 10.708079 -21.905798 
227.271264 0.000000 531.451870 0.000000 160.621873 0.000000 1.766653 88.922874 -0.320975 98.658185 -0.737638 179.752799 158.335457 0.281001 -173.304951 -35.104967 -2.208638 -10.458186 76.226639 6.107398 -5.440643 21.454557 0.003109 0.000017 -175.367550 -5.680034 -175.829265 -25.096621 1.545013 -1.709921 93.515353 0.047675 -8.161424 21.454551 -0.003094 -0.000001 9.021528 -0.189001 -0.490828 8.031747 -0.343481 -0.993561 7.713678 -0.349607 -0.991474 5.428858 0.697054 -18.466832 -8.615753 13.173796 -22.276873 131.663075 -75.617691 47.870648 13.753965 54.746905 37.820143 -53.691391 -19.820908 2.228187 8.780103 -7.112763 22.220834 176.074661 75.013865 -2.639460 -26.172487 -52.153140 -12.978218 -69.576320 17.101102 -2.621174 7.445118 11.159151 -21.509194 
226.856128 0.000000 530.921954 0.000000 158.871043 0.000000 1.632860 88.948753 -0.349957 98.424262 -0.869707 179.752544 158.059580 1.575502 -172.319567 -33.553266 -2.471614 -10.280970 75.741995 5.967239 -5.472177 21.454558 0.003110 0.000018 -175.124138 -5.756497 -176.815320 -24.751982 1.655739 -2.151417 93.356828 0.276166 -8.571413 21.454553 -0.003093 -0.000000 9.011466 -0.180433 -0.405599 8.011336 -0.332345 -0.822690 7.693237 -0.337435 -0.820671 5.673104 0.719581 -18.516173 -8.746916 13.193835 -22.360532 131.770657 -75.637716 47.760098 13.912181 54.717279 37.671105 -54.487225 -19.679071 2.247186 8.836850 -7.260274 21.997259 175.693106 75.091321 -3.028009 -26.325580 -52.132927 -13.131242 -69.169776 17.292051 -2.617600 7.136756 11.684900 -20.532944 
226.418294 0.000000 530.371844 0.000000 157.123147 0.000000 1.494956 88.955724 -0.386150 98.198365 -1.011291 179.740969 157.817669 2.780197 -171.516038 -31.932876 -2.616089 -9.959459 75.405779 5.477759 -6.414295 21.454558 0.003111 0.000018 -174.921341 -5.788411 -177.601025 -24.565244 1.692402 -2.684776 93.262635 0.573682 -8.968128 21.454553 -0.003092 0.000000 9.002423 -0.182428 -0.307206 7.992980 -0.343178 -0.626250 7.674877 -0.347085 -0.624173 5.942402 0.690181 -18.561857 -8.823480 13.267162 -22.459683 131.482620 -75.561539 48.058044 14.220945 54.596177 37.573825 -55.195119 -19.498738 2.260709 8.887454 -7.252273 21.782740 175.338286 75.137691 -3.389967 -26.266849 -52.149571 -13.565088 -68.526258 17.560690 -2.609471 6.857538 12.197916 -19.129807 
225.959448 0.000000 529.800650 0.000000 155.375086 0.000000 1.356408 88.937271 -0.425281 97.968110 -1.140745 179.718102 157.620071 3.867494 -170.750139 -30.189234 -2.761038 -9.512571 75.066230 4.753016 -7.871846 21.454558 0.003112 0.000019 -174.767834 -5.793897 -178.171891 -24.534466 1.666721 -3.327830 93.234178 0.949578 -9.369893 21.454553 -0.003093 -0.000000 8.997171 -0.190948 -0.200782 7.982186 -0.367553 -0.414225 7.664086 -0.370184 -0.412008 6.122716 0.641042 -18.600512 -8.817474 13.335399 -22.536870 131.118483 -75.484822 48.433029 14.526631 54.426917 37.535608 -55.750021 -19.353003 2.270410 8.879856 -7.104645 21.580638 175.064961 75.170524 -3.668824 -26.133027 -52.200621 -14.255213 -67.571074 17.928673 -2.596544 6.587314 12.815911 -17.520615 
225.481276 0.000000 529.207479 0.000000 153.624195 0.000000 1.219324 88.893543 -0.460357 97.721483 -1.246569 179.686626 157.485875 4.826065 -169.913810 -28.275656 -3.020358 -8.999488 74.560893 3.958861 -9.337722 21.454557 0.003113 0.000020 -174.659104 -5.788159 -178.565157 -24.625531 1.601046 -4.067686 93.259531 1.392195 -9.790923 21.454551 -0.003095 -0.000001 8.997763 -0.204184 -0.093979 7.983075 -0.401351 -0.201791 7.664963 -0.402699 -0.199371 6.114689 0.600726 -18.621936 -8.709355 13.346115 -22.552566 131.012614 -75.505614 48.538344 14.665924 54.250738 37.570388 -56.077381 -19.311025 2.279161 8.812992 -6.832696 21.400660 174.887029 75.212958 -3.849714 -26.055691 -52.288473 -15.159116 -66.247129 18.410069 -2.576776 6.322229 13.641796 -15.871414 
